<svg xmlns="http://www.w3.org/2000/svg" width="924" height="620" viewBox="0 0 924 620" font-family="sans-serif">
<rect width="924" height="620" fill="white"/>
<text x="80" y="28" font-size="15">accumulated problematic turns vs generated tokens</text>
<line x1="80" y1="560" x2="640" y2="560" stroke="#e5e5e5"/>
<text x="72" y="564" font-size="12" text-anchor="end">0</text>
<line x1="80" y1="400.625" x2="640" y2="400.625" stroke="#e5e5e5"/>
<text x="72" y="404.625" font-size="12" text-anchor="end">10</text>
<line x1="80" y1="241.25" x2="640" y2="241.25" stroke="#e5e5e5"/>
<text x="72" y="245.25" font-size="12" text-anchor="end">20</text>
<line x1="80" y1="81.875" x2="640" y2="81.875" stroke="#e5e5e5"/>
<text x="72" y="85.875" font-size="12" text-anchor="end">30</text>
<line x1="80" y1="50" x2="80" y2="560" stroke="#e5e5e5"/>
<text x="80" y="580" font-size="12" text-anchor="middle">0k</text>
<line x1="189.0746187257747" y1="50" x2="189.0746187257747" y2="560" stroke="#e5e5e5"/>
<text x="189.0746187257747" y="580" font-size="12" text-anchor="middle">10k</text>
<line x1="298.1492374515494" y1="50" x2="298.1492374515494" y2="560" stroke="#e5e5e5"/>
<text x="298.1492374515494" y="580" font-size="12" text-anchor="middle">20k</text>
<line x1="407.22385617732414" y1="50" x2="407.22385617732414" y2="560" stroke="#e5e5e5"/>
<text x="407.22385617732414" y="580" font-size="12" text-anchor="middle">30k</text>
<line x1="516.2984749030988" y1="50" x2="516.2984749030988" y2="560" stroke="#e5e5e5"/>
<text x="516.2984749030988" y="580" font-size="12" text-anchor="middle">40k</text>
<line x1="625.3730936288737" y1="50" x2="625.3730936288737" y2="560" stroke="#e5e5e5"/>
<text x="625.3730936288737" y="580" font-size="12" text-anchor="middle">50k</text>
<text x="360" y="608" font-size="13" text-anchor="middle">generated tokens</text>
<text x="20" y="305" font-size="13" text-anchor="middle" transform="rotate(-90 20 305)">accumulated problematic turns</text>
<path d="M89.9 560.0 L96.3 544.1 L103.3 544.1 L111.2 544.1 L119.4 544.1 L127.7 544.1 L136.6 544.1 L145.1 528.1 L153.2 528.1 L163.1 528.1 L173.5 528.1 L183.1 528.1 L194.4 528.1 L205.3 528.1 L218.2 528.1 L229.6 512.2 L241.4 512.2 L253.3 512.2 L267.4 512.2 L280.5 512.2 L296.0 496.3 L310.3 496.3 L323.4 496.3 L337.2 480.3 L354.3 464.4 L366.8 464.4 L379.9 464.4 L384.5 464.4 L396.2 464.4 L413.5 464.4 L428.5 464.4 L439.4 448.4 L454.4 448.4 L465.8 448.4 L477.3 448.4 L488.8 448.4 L500.1 448.4 L511.2 432.5 L529.4 432.5 L543.6 416.6 L555.5 416.6 L572.2 400.6 L590.2 384.7 L605.8 368.8 L621.2 368.8 L636.0 368.8" fill="none" stroke="#d62728" stroke-opacity="0.25" stroke-width="1" stroke-dasharray=""/>
<path d="M88.9 560.0 L96.1 544.1 L102.2 544.1 L108.6 544.1 L115.4 544.1 L124.4 544.1 L133.3 528.1 L143.8 528.1 L155.0 528.1 L163.0 528.1 L172.3 528.1 L182.8 528.1 L192.7 528.1 L205.6 512.2 L217.2 496.3 L229.5 480.3 L241.9 480.3 L252.9 480.3 L264.7 480.3 L275.7 480.3 L287.1 480.3 L299.6 480.3 L315.5 480.3 L327.8 480.3 L339.8 480.3 L351.6 480.3 L365.0 480.3 L379.8 464.4 L390.9 464.4 L404.8 448.4 L417.6 448.4 L429.4 448.4 L439.7 448.4 L452.2 448.4 L464.9 448.4 L479.3 432.5 L492.9 416.6 L505.0 416.6 L521.8 416.6 L535.6 400.6 L553.0 400.6 L567.5 400.6 L582.5 384.7 L597.1 384.7 L614.1 368.8 L630.6 368.8" fill="none" stroke="#d62728" stroke-opacity="0.25" stroke-width="1" stroke-dasharray=""/>
<path d="M89.8 544.1 L97.5 544.1 L105.1 544.1 L113.7 544.1 L121.5 544.1 L130.0 528.1 L140.0 528.1 L150.8 528.1 L160.9 528.1 L171.8 528.1 L181.0 528.1 L190.4 528.1 L200.2 528.1 L210.6 528.1 L219.7 528.1 L229.4 528.1 L238.9 528.1 L249.9 528.1 L261.1 528.1 L271.4 528.1 L282.5 512.2 L303.9 496.3 L313.8 496.3 L323.7 496.3 L334.6 496.3 L346.5 480.3 L357.7 480.3 L369.0 464.4 L383.1 464.4 L394.0 464.4 L405.6 448.4 L417.3 448.4 L428.5 448.4 L441.3 448.4 L454.9 448.4 L468.4 432.5 L482.1 432.5 L495.7 432.5 L508.9 432.5 L522.5 432.5 L532.7 416.6 L545.1 416.6 L556.9 416.6 L570.6 400.6 L584.3 384.7 L598.4 368.8 L610.9 368.8 L624.1 352.8 L636.3 336.9" fill="none" stroke="#d62728" stroke-opacity="0.25" stroke-width="1" stroke-dasharray=""/>
<path d="M107.3 544.1 L134.5 533.4 L161.8 528.1 L189.1 528.1 L216.3 522.8 L243.6 506.9 L270.9 506.9 L298.1 496.3 L325.4 490.9 L352.7 480.3 L380.0 464.4 L407.2 453.8 L434.5 453.8 L461.8 448.4 L489.0 437.8 L516.3 427.2 L543.6 416.6 L570.8 405.9 L598.1 384.7 L625.4 363.4" fill="none" stroke="#d62728" stroke-opacity="1" stroke-width="2.5" stroke-dasharray=""/>
<line x1="670" y1="70" x2="690" y2="70" stroke="#d62728" stroke-width="2.5" stroke-dasharray=""/>
<text x="696" y="74" font-size="12">neuralwatt/glm-5.3-flash English</text>
<path d="M91.1 560.0 L99.5 544.1 L107.8 528.1 L116.5 528.1 L125.1 528.1 L135.9 528.1 L146.8 512.2 L157.8 496.3 L171.5 480.3 L184.3 464.4 L199.7 464.4 L214.9 448.4 L230.4 432.5 L244.3 432.5 L259.8 432.5 L275.5 416.6 L294.3 400.6 L308.1 400.6 L325.8 384.7 L345.8 368.8 L362.7 352.8 L382.1 336.9 L398.3 320.9 L415.9 305.0 L433.7 289.1 L451.2 273.1 L468.8 257.2 L487.1 241.3 L504.8 225.3 L522.6 209.4 L541.4 193.4 L559.5 177.5 L578.7 161.6 L597.5 145.6 L616.4 129.7 L634.6 113.8" fill="none" stroke="#d62728" stroke-opacity="0.25" stroke-width="1" stroke-dasharray="7 5"/>
<path d="M91.1 560.0 L100.1 544.1 L109.0 544.1 L119.4 544.1 L129.0 544.1 L140.0 528.1 L151.6 512.2 L162.4 496.3 L172.5 480.3 L183.3 464.4 L194.5 448.4 L204.1 432.5 L214.3 432.5 L225.4 432.5 L235.4 416.6 L248.3 400.6 L261.1 400.6 L273.6 384.7 L285.0 384.7 L297.6 368.8 L309.7 352.8 L336.6 336.9 L350.5 320.9 L373.4 305.0 L386.8 289.1 L400.7 273.1 L414.3 257.2 L427.9 241.3 L442.2 225.3 L468.5 209.4 L481.5 193.4 L494.6 177.5 L509.9 161.6 L525.0 145.6 L541.0 129.7 L554.6 113.8 L568.9 97.8 L582.6 81.9 L597.7 65.9 L626.7 50.0" fill="none" stroke="#d62728" stroke-opacity="0.25" stroke-width="1" stroke-dasharray="7 5"/>
<path d="M91.3 560.0 L100.6 544.1 L111.2 544.1 L123.7 544.1 L135.7 528.1 L147.6 528.1 L160.2 512.2 L173.8 496.3 L187.1 480.3 L200.3 464.4 L214.0 464.4 L227.0 448.4 L241.3 432.5 L254.4 416.6 L267.3 400.6 L279.9 400.6 L293.9 384.7 L309.3 368.8 L323.2 352.8 L337.2 336.9 L351.6 320.9 L368.5 305.0 L384.3 289.1 L399.6 273.1 L415.1 257.2 L432.1 241.3 L448.5 241.3 L464.7 225.3 L482.1 209.4 L500.1 193.4 L515.0 177.5 L531.1 161.6 L546.0 161.6 L560.4 145.6 L575.7 129.7 L593.9 113.8 L611.0 97.8 L628.1 81.9" fill="none" stroke="#d62728" stroke-opacity="0.25" stroke-width="1" stroke-dasharray="7 5"/>
<path d="M107.3 544.1 L134.5 538.8 L161.8 506.9 L189.1 469.7 L216.3 448.4 L243.6 427.2 L270.9 411.3 L298.1 384.7 L325.4 368.8 L352.7 336.9 L380.0 320.9 L407.2 289.1 L434.5 257.2 L461.8 246.6 L489.0 214.7 L516.3 188.1 L543.6 161.6 L570.8 140.3 L598.1 108.4 L625.4 97.8" fill="none" stroke="#d62728" stroke-opacity="1" stroke-width="2.5" stroke-dasharray="7 5"/>
<line x1="670" y1="92" x2="690" y2="92" stroke="#d62728" stroke-width="2.5" stroke-dasharray="7 5"/>
<text x="696" y="96" font-size="12">neuralwatt/glm-5.3-flash Russian</text>
<path d="M89.8 560.0 L96.9 560.0 L104.0 560.0 L110.4 560.0 L118.4 560.0 L126.8 560.0 L135.6 560.0 L145.8 560.0 L156.4 560.0 L168.1 560.0 L179.7 560.0 L190.5 560.0 L199.6 544.1 L212.4 544.1 L226.4 544.1 L239.0 544.1 L251.7 544.1 L264.1 544.1 L276.6 544.1 L289.4 544.1 L301.2 544.1 L314.8 544.1 L327.3 544.1 L340.5 544.1 L353.7 544.1 L367.0 544.1 L379.5 544.1 L393.3 544.1 L405.8 544.1 L418.3 528.1 L431.5 528.1 L444.8 528.1 L458.2 528.1 L470.6 528.1 L485.7 528.1 L499.8 528.1 L513.5 528.1 L529.4 528.1 L545.2 528.1 L557.8 528.1 L571.2 528.1 L586.1 528.1 L600.4 528.1 L616.3 528.1 L629.4 528.1" fill="none" stroke="#ff7f0e" stroke-opacity="0.25" stroke-width="1" stroke-dasharray=""/>
<path d="M89.7 560.0 L96.9 560.0 L104.1 560.0 L111.4 560.0 L119.6 560.0 L128.7 560.0 L134.4 560.0 L139.1 560.0 L142.8 560.0 L148.5 560.0 L154.8 560.0 L161.2 560.0 L167.3 560.0 L173.5 560.0 L177.3 560.0 L179.5 560.0 L182.2 560.0 L184.0 560.0 L185.1 560.0 L186.1 560.0 L188.3 560.0 L187.7 560.0 L191.0 560.0 L193.9 560.0 L195.6 560.0 L197.4 560.0 L198.6 560.0 L203.2 560.0 L205.1 560.0 L210.6 560.0 L214.1 560.0 L217.2 560.0 L219.3 560.0 L220.3 560.0 L221.8 560.0 L223.2 560.0 L224.7 560.0 L225.5 560.0 L227.0 560.0 L228.8 560.0 L229.9 560.0 L232.1 560.0 L233.3 560.0 L234.8 560.0 L236.9 560.0 L238.5 560.0 L239.2 560.0 L241.0 560.0 L242.3 560.0 L243.8 560.0 L244.8 560.0 L247.1 560.0 L249.4 560.0 L251.6 560.0 L253.4 560.0 L255.9 560.0 L257.6 560.0 L260.6 560.0 L263.3 560.0 L264.6 560.0 L267.2 560.0 L268.9 560.0 L270.2 560.0 L271.9 560.0 L273.6 560.0 L274.9 560.0 L276.2 560.0 L278.3 560.0 L280.2 560.0 L283.4 560.0 L285.4 560.0 L287.8 560.0 L291.0 560.0 L293.3 560.0 L295.0 560.0 L297.3 560.0 L299.0 560.0 L300.8 560.0 L302.5 560.0 L304.4 560.0 L306.3 560.0 L308.1 560.0 L309.9 560.0 L311.7 560.0 L313.5 560.0 L315.3 560.0 L317.1 560.0 L318.9 560.0 L320.7 560.0 L322.5 560.0 L324.3 560.0 L326.1 560.0 L327.9 560.0 L329.7 560.0 L331.5 560.0 L333.3 560.0 L335.1 560.0 L336.9 560.0 L338.7 560.0 L340.5 560.0" fill="none" stroke="#ff7f0e" stroke-opacity="0.25" stroke-width="1" stroke-dasharray=""/>
<path d="M90.4 560.0 L97.8 560.0 L104.9 560.0 L112.9 560.0 L122.6 560.0 L131.9 560.0 L141.0 560.0 L150.4 560.0 L161.1 560.0 L171.1 560.0 L181.6 560.0 L192.7 560.0 L202.7 560.0 L213.5 560.0 L224.4 544.1 L235.6 544.1 L246.0 544.1 L257.2 544.1 L269.7 544.1 L281.7 544.1 L294.5 544.1 L306.6 544.1 L319.0 544.1 L332.6 544.1 L345.4 544.1 L358.2 544.1 L371.1 544.1 L385.3 544.1 L398.2 544.1 L411.3 544.1 L424.8 544.1 L438.1 544.1 L452.4 544.1 L466.3 544.1 L479.7 528.1 L493.6 528.1 L506.0 528.1 L518.9 528.1 L585.7 528.1 L614.2 528.1 L629.0 528.1" fill="none" stroke="#ff7f0e" stroke-opacity="0.25" stroke-width="1" stroke-dasharray=""/>
<path d="M107.3 560.0 L134.5 560.0 L161.8 560.0 L189.1 560.0 L216.3 554.7 L243.6 549.4 L270.9 549.4 L298.1 549.4 L325.4 549.4" fill="none" stroke="#ff7f0e" stroke-opacity="1" stroke-width="2.5" stroke-dasharray=""/>
<line x1="670" y1="114" x2="690" y2="114" stroke="#ff7f0e" stroke-width="2.5" stroke-dasharray=""/>
<text x="696" y="118" font-size="12">neuralwatt/glm-5.3-flash t0.9 English</text>
<path d="M90.5 560.0 L98.1 560.0 L105.9 560.0 L113.5 544.1 L120.4 544.1 L127.8 544.1 L137.0 544.1 L146.9 544.1 L157.4 544.1 L167.8 544.1 L178.3 544.1 L188.2 528.1 L202.7 528.1 L215.0 528.1 L227.3 512.2 L239.2 512.2 L254.0 512.2 L267.3 496.3 L283.7 496.3 L296.9 496.3 L310.3 496.3 L324.1 480.3 L338.8 480.3 L359.9 464.4 L377.8 464.4 L395.9 464.4 L415.3 464.4 L431.6 448.4 L448.3 448.4 L464.8 448.4 L483.7 432.5 L501.4 416.6 L517.8 400.6 L535.2 384.7 L553.8 368.8 L573.2 352.8 L589.2 336.9 L606.7 336.9 L628.4 336.9" fill="none" stroke="#ff7f0e" stroke-opacity="0.25" stroke-width="1" stroke-dasharray="7 5"/>
<path d="M90.4 560.0 L100.4 560.0 L110.0 544.1 L119.2 528.1 L131.2 528.1 L142.5 528.1 L154.3 528.1 L167.9 528.1 L181.0 512.2 L193.5 512.2 L205.1 512.2 L220.2 512.2 L232.3 512.2 L245.0 512.2 L256.7 512.2 L271.6 496.3 L285.3 496.3 L297.7 480.3 L310.8 480.3 L324.3 464.4 L338.3 464.4 L353.1 464.4 L370.9 448.4 L385.1 448.4 L397.9 432.5 L412.5 432.5 L426.2 432.5 L441.0 416.6 L455.6 416.6 L470.0 416.6 L484.1 400.6 L500.7 400.6 L516.6 384.7 L529.7 384.7 L543.7 368.8 L558.1 368.8 L572.2 368.8 L588.4 368.8 L605.4 368.8 L622.1 352.8 L640.0 336.9" fill="none" stroke="#ff7f0e" stroke-opacity="0.25" stroke-width="1" stroke-dasharray="7 5"/>
<path d="M90.8 560.0 L98.7 560.0 L107.2 544.1 L115.9 528.1 L125.4 528.1 L135.8 528.1 L146.0 528.1 L155.8 512.2 L168.2 512.2 L179.5 512.2 L190.3 512.2 L201.8 512.2 L213.8 512.2 L225.0 496.3 L237.3 480.3 L250.0 464.4 L261.9 464.4 L266.7 464.4 L279.5 448.4 L291.2 448.4 L303.8 448.4 L315.1 448.4 L328.6 448.4 L342.6 448.4 L356.1 448.4 L368.6 448.4 L381.3 448.4 L394.5 432.5 L408.3 416.6 L421.4 416.6 L434.1 416.6 L448.1 416.6 L463.6 416.6 L477.7 400.6 L492.3 400.6 L506.6 384.7 L520.5 368.8 L535.4 368.8 L549.6 368.8 L563.9 368.8 L579.1 368.8 L593.6 368.8 L607.9 352.8 L629.3 352.8" fill="none" stroke="#ff7f0e" stroke-opacity="0.25" stroke-width="1" stroke-dasharray="7 5"/>
<path d="M107.3 554.7 L134.5 533.4 L161.8 528.1 L189.1 517.5 L216.3 517.5 L243.6 501.6 L270.9 490.9 L298.1 475.0 L325.4 464.4 L352.7 464.4 L380.0 453.8 L407.2 443.1 L434.5 432.5 L461.8 427.2 L489.0 411.3 L516.3 400.6 L543.6 379.4 L570.8 368.8 L598.1 358.1 L625.4 347.5" fill="none" stroke="#ff7f0e" stroke-opacity="1" stroke-width="2.5" stroke-dasharray="7 5"/>
<line x1="670" y1="136" x2="690" y2="136" stroke="#ff7f0e" stroke-width="2.5" stroke-dasharray="7 5"/>
<text x="696" y="140" font-size="12">neuralwatt/glm-5.3-flash t0.9 Russian</text>
</svg>